<svg width="600" height="338" viewBox="0 0 600 338" class="rounded-xl shadow-md overflow-hidden border border-slate-100" xmlns="http://www.w3.org/2000/svg"><defs><linearGradient id="grad1" x1="0%" y1="0%" x2="100%" y2="100%"><stop offset="0%" style="stop-color: rgb(51, 102, 255); stop-opacity: 1;"></stop><stop offset="100%" style="stop-color: rgb(30, 41, 59); stop-opacity: 1;"></stop></linearGradient></defs><rect width="600" height="338" fill="url(#grad1)"></rect><circle cx="550" cy="50" r="100" fill="white" fill-opacity="0.05"></circle><path d="M0 250 Q150 200 300 250 T600 250 V338 H0 Z" fill="white" fill-opacity="0.03"></path><g transform="translate(320, 25) scale(0.6)"><g id="T-Figure-Fixed"><rect x="115" y="88" width="32" height="42" fill="#FF9900" stroke="white" stroke-width="1.5"></rect><path d="M75 105 L115 88 L175 72 L182 82 L145 88 L145 105 Z" fill="#FF9900" stroke="white" stroke-width="1.5"></path><circle cx="130" cy="74" r="14" fill="#FF9900" stroke="white" stroke-width="1.5"></circle><path d="M110 65 L130 55 L150 65 L130 75 Z" fill="white"></path><rect x="123" y="65" width="14" height="6" fill="white"></rect></g><text x="200" y="130" font-family="Arial Black" font-size="58" font-weight="bold" fill="white">IP-TOP</text></g><rect x="50" y="130" width="50" height="6" fill="#FF9900" rx="3"></rect><text x="50" y="195" font-family="Arial Black, sans-serif" font-size="44" fill="white" font-weight="bold">Tip-Top Education</text><text x="50" y="235" font-family="Arial, sans-serif" font-size="18" fill="#FF9900" font-weight="bold" style="letter-spacing: 2px;">COMPUTER TRAINING SCHOOL</text><rect x="0" y="328" width="600" height="10" fill="#FF9900"></rect></svg>